# xmcd CD database file
#
# Track frame offsets:
#	150
#	14742
#	26761
#	46402
#	62747
#	77866
#	91060
#	101041
#	118765
#	134288
#	151775
#	169875
#	182559
#
# Disc length: 2548 seconds
#
# Revision: 0
# Processed by: cddbd v1.5.1PL0 Copyright (c) Steve Scherf et al.
# Submitted via: CDex 1.51
#
DISCID=a809f20d
DTITLE=Pocopen and Nishiwaki - Sunny Spot Lane
DYEAR=2003
DGENRE=Blues
TTITLE0=白い街
TTITLE1=Mariana
TTITLE2=Driving Johnny
TTITLE3=Lane #2
TTITLE4=Sunny Spot Lane
TTITLE5=Merci Neighbor
TTITLE6=Lane #1
TTITLE7=Great Grand Father
TTITLE8=Old Jad
TTITLE9=Lane #3
TTITLE10=a Mirror
TTITLE11=Luna
TTITLE12=Lane #4
EXTD=YEAR: 2003
EXTT0=
EXTT1=
EXTT2=
EXTT3=
EXTT4=
EXTT5=
EXTT6=
EXTT7=
EXTT8=
EXTT9=
EXTT10=
EXTT11=
EXTT12=
PLAYORDER=
